<?xml version="1.0" encoding="UTF-8" standalone="no"?>
<!DOCTYPE svg PUBLIC "-//W3C//DTD SVG 1.1//EN" "http://www.w3.org/Graphics/SVG/1.1/DTD/svg11.dtd">
<svg width="100%" height="100%" viewBox="0 0 274 70" version="1.1" xmlns="http://www.w3.org/2000/svg" xmlns:xlink="http://www.w3.org/1999/xlink" xml:space="preserve" xmlns:serif="http://www.serif.com/" style="fill-rule:evenodd;clip-rule:evenodd;stroke-linejoin:round;stroke-miterlimit:2;">
    <g transform="matrix(0.442893,0,0,0.442893,136.148,33.6524)">
        <g id="Group--10-.svg" serif:id="Group (10).svg" transform="matrix(1,0,0,1,-277.5,-45.5)">
            <path d="M265.862,7.652C261.164,3.248 255.145,0.898 247.804,0.898C240.316,0.898 234.296,3.248 229.598,7.946C224.9,12.644 222.551,18.37 222.551,25.417C222.551,32.905 224.9,38.778 229.598,43.182C234.296,47.587 240.463,49.936 247.804,49.936C255.145,49.936 261.164,47.587 265.862,43.036C268.211,40.686 270.12,38.044 271.295,35.107C272.469,32.171 273.057,28.941 273.057,25.27C273.057,17.929 270.561,12.057 265.862,7.652ZM258.228,36.135C255.732,38.925 252.208,40.246 247.657,40.246C243.693,40.246 240.022,38.925 237.38,35.988C234.59,33.052 233.415,29.381 233.415,25.27C233.415,20.866 234.737,17.342 237.38,14.553C240.022,11.763 243.546,10.442 247.657,10.442C251.621,10.442 254.998,11.763 257.787,14.553C260.577,17.342 261.898,20.866 261.898,25.27C262.045,29.675 260.724,33.345 258.228,36.135Z" style="fill:white;fill-rule:nonzero;"/>
            <path d="M304.623,22.187L291.115,22.187L291.115,11.323L306.678,11.323C307.412,11.323 307.999,10.735 307.999,10.001L307.999,3.101C307.999,2.367 307.412,1.779 306.678,1.779L282.159,1.779C281.425,1.779 280.838,2.367 280.838,3.101L280.838,47.88C280.838,48.615 281.425,49.202 282.159,49.202L289.794,49.202C290.528,49.202 291.115,48.615 291.115,47.88L291.115,31.877L304.623,31.877C305.357,31.877 305.944,31.29 305.944,30.556L305.944,23.655C305.944,22.774 305.357,22.187 304.623,22.187Z" style="fill:white;fill-rule:nonzero;"/>
            <path d="M327.232,11.323L327.232,47.88C327.232,48.615 327.82,49.202 328.554,49.202L336.188,49.202C336.922,49.202 337.51,48.615 337.51,47.88L337.51,11.323L350.577,11.323C351.311,11.323 351.898,10.735 351.898,10.001L351.898,3.101C351.898,2.367 351.311,1.779 350.577,1.779L314.019,1.779C313.285,1.779 312.697,2.367 312.697,3.101L312.697,10.001C312.697,10.735 313.285,11.323 314.019,11.323L327.232,11.323Z" style="fill:white;fill-rule:nonzero;"/>
            <path d="M370.25,29.528C372.599,30.703 374.361,31.73 375.682,32.905C376.857,33.933 377.591,35.107 377.591,36.282C377.591,37.456 377.151,38.484 376.27,39.365C375.389,40.099 374.214,40.393 372.746,40.393C370.837,40.393 368.929,39.952 367.02,39.071C365.699,38.484 364.524,37.603 363.496,36.575C362.909,35.988 362.028,36.135 361.588,36.722L357.33,41.861C356.89,42.301 356.89,42.889 357.183,43.476C358.358,45.385 360.266,46.853 362.762,48.027C365.845,49.496 369.076,50.083 372.452,50.083C377.151,50.083 380.968,48.761 384.051,46.119C386.547,44.21 388.309,41.274 388.602,38.044C388.896,34.814 388.456,32.024 387.281,29.822C386.4,27.913 385.079,26.592 383.611,25.564C382.142,24.536 380.527,23.509 378.912,22.628C377.151,21.747 375.536,21.013 374.067,20.425C372.599,19.838 371.278,18.957 370.25,17.929C369.222,16.902 368.635,15.727 368.635,14.406C368.635,13.231 369.076,12.204 369.956,11.469C370.837,10.735 372.159,10.442 373.774,10.442C375.389,10.442 376.71,10.735 377.738,11.176C378.472,11.469 379.206,11.91 379.94,12.644C380.527,13.084 381.408,13.084 381.849,12.35L385.666,6.771C386.107,6.184 385.96,5.45 385.372,5.009C382.289,2.22 378.031,0.898 372.599,0.898C368.048,0.898 364.377,2.22 361.588,4.863C358.798,7.505 357.477,10.735 357.477,14.406C357.477,16.168 357.624,17.636 358.211,19.104C358.798,20.572 359.532,21.747 360.266,22.775C361,23.802 362.028,24.683 363.35,25.711C364.671,26.592 365.699,27.326 366.726,27.913C367.607,28.5 368.782,28.941 370.25,29.528Z" style="fill:white;fill-rule:nonzero;"/>
            <path d="M416.645,48.174L426.482,17.342L436.466,48.174C436.613,48.762 437.2,49.055 437.787,49.055L445.862,49.055C446.45,49.055 447.037,48.615 447.184,48.027L459.81,3.248C460.104,2.367 459.37,1.486 458.489,1.486L451.441,1.486C450.854,1.486 450.267,1.926 450.12,2.514L441.898,32.758L432.649,2.367C432.502,1.78 431.915,1.486 431.327,1.486L422.812,1.486C422.224,1.486 421.637,1.926 421.49,2.514L412.534,32.905L404.459,2.66C404.313,2.073 403.725,1.633 403.138,1.633L394.182,1.633C393.301,1.633 392.567,2.514 392.861,3.395L406.074,48.174C406.221,48.762 406.808,49.202 407.396,49.202L415.471,49.202C415.911,49.202 416.352,48.762 416.645,48.174Z" style="fill:white;fill-rule:nonzero;"/>
            <path d="M468.766,49.202L476.401,49.202C477.135,49.202 477.722,48.615 477.722,47.88L477.722,3.101C477.722,2.367 477.135,1.779 476.401,1.779L468.766,1.779C468.032,1.779 467.445,2.367 467.445,3.101L467.445,47.88C467.298,48.615 468.032,49.202 468.766,49.202Z" style="fill:white;fill-rule:nonzero;"/>
            <path d="M500.186,29.528C502.535,30.703 504.297,31.731 505.618,32.905C506.792,33.933 507.527,35.107 507.527,36.282C507.527,37.457 507.086,38.484 506.205,39.365C505.324,40.099 504.15,40.393 502.682,40.393C500.773,40.393 498.864,39.952 496.956,39.072C495.634,38.484 494.46,37.603 493.432,36.576C492.845,35.988 491.964,36.135 491.523,36.722L487.266,41.861C486.825,42.301 486.825,42.889 487.119,43.476C488.293,45.385 490.202,46.853 492.698,48.028C495.781,49.496 499.011,50.083 502.388,50.083C507.086,50.083 510.903,48.762 513.987,46.119L514.427,45.678C516.923,43.182 518.538,39.952 518.538,36.429C518.538,33.933 518.098,31.731 517.07,29.969C516.189,28.06 514.867,26.739 513.546,25.711C512.078,24.683 510.463,23.656 508.701,22.775C506.939,21.894 505.324,21.16 503.856,20.572C502.388,19.985 501.066,19.104 500.039,18.076C499.011,17.049 498.424,15.874 498.424,14.553C498.424,13.378 498.864,12.351 499.745,11.616C500.626,10.882 501.947,10.589 503.562,10.589C505.177,10.589 506.499,10.882 507.527,11.323C508.261,11.616 508.995,12.057 509.729,12.791C510.316,13.231 511.197,13.231 511.637,12.497L515.602,6.918C516.042,6.331 515.895,5.597 515.308,5.156C512.225,2.367 507.967,1.045 502.535,1.045C497.983,1.045 494.313,2.367 491.523,5.01C488.734,7.652 487.412,10.882 487.412,14.553C487.412,16.315 487.559,17.783 488.146,19.251C488.734,20.719 489.468,21.894 490.202,22.921C490.936,23.949 491.964,24.83 493.285,25.858C494.606,26.739 495.634,27.473 496.662,28.06C497.543,28.501 498.717,28.941 500.186,29.528Z" style="fill:white;fill-rule:nonzero;"/>
            <path d="M536.596,29.528C538.945,30.703 540.707,31.731 542.028,32.905C543.203,33.933 543.937,35.107 543.937,36.282C543.937,37.457 543.496,38.484 542.615,39.365C541.734,40.099 540.56,40.393 539.092,40.393C537.183,40.393 535.274,39.952 533.366,39.072C532.044,38.484 530.87,37.603 529.842,36.576C529.255,35.988 528.374,36.135 527.933,36.722L523.676,41.861C523.235,42.301 523.235,42.889 523.529,43.476C524.703,45.385 526.612,46.853 529.108,48.028C532.191,49.496 535.421,50.083 538.798,50.083C543.496,50.083 547.314,48.762 550.397,46.119L550.837,45.678C553.333,43.182 554.948,39.952 554.948,36.429C554.948,33.933 554.508,31.731 553.48,29.969C552.599,28.06 551.278,26.739 549.956,25.711C548.488,24.683 546.873,23.656 545.111,22.775C543.349,21.894 541.734,21.16 540.266,20.572C538.798,19.985 537.477,19.104 536.449,18.076C535.421,17.049 534.834,15.874 534.834,14.553C534.834,13.378 535.274,12.351 536.155,11.616C537.036,10.882 538.358,10.589 539.973,10.589C541.588,10.589 542.909,10.882 543.937,11.323C544.671,11.616 545.405,12.057 546.139,12.791C546.726,13.231 547.607,13.231 548.048,12.497L552.012,6.918C552.452,6.331 552.305,5.597 551.718,5.156C548.635,2.367 544.377,1.045 538.945,1.045C534.393,1.045 530.723,2.367 527.933,5.01C525.144,7.652 523.823,10.882 523.823,14.553C523.823,16.315 523.969,17.783 524.557,19.251C525.144,20.719 525.878,21.894 526.612,22.921C527.346,23.949 528.374,24.83 529.695,25.858C531.017,26.739 532.044,27.473 533.072,28.06C534.1,28.501 535.274,28.941 536.596,29.528Z" style="fill:white;fill-rule:nonzero;"/>
            <path d="M198.031,29.528C200.38,30.703 202.142,31.73 203.464,32.905C204.638,33.933 205.372,35.107 205.372,36.282C205.372,37.456 204.932,38.484 204.051,39.365C203.17,40.099 201.995,40.393 200.527,40.393C198.619,40.393 196.71,39.952 194.801,39.071C193.48,38.484 192.305,37.603 191.278,36.575C190.69,35.988 189.809,36.135 189.369,36.722L185.111,41.861C184.671,42.301 184.671,42.889 184.964,43.476C186.139,45.385 188.048,46.853 190.544,48.027C193.627,49.496 196.857,50.083 200.234,50.083C204.932,50.083 208.749,48.761 211.832,46.119L212.273,45.678C214.769,43.182 216.384,39.952 216.53,36.282C216.53,33.786 216.09,31.584 215.062,29.822C214.181,27.913 212.86,26.592 211.392,25.564C209.924,24.536 208.309,23.509 206.694,22.628C204.932,21.747 203.317,21.013 201.849,20.425C200.38,19.838 199.059,18.957 198.031,17.929C197.004,16.902 196.416,15.727 196.416,14.406C196.416,13.231 196.857,12.204 197.738,11.469C198.619,10.735 199.94,10.442 201.555,10.442C203.17,10.442 204.491,10.735 205.519,11.176C206.253,11.469 206.987,11.91 207.721,12.644C208.309,13.084 209.19,13.084 209.63,12.35L213.594,6.771C214.035,6.184 213.888,5.45 213.3,5.009C210.217,2.22 205.959,0.898 200.527,0.898C195.976,0.898 192.305,2.22 189.516,4.863C186.726,7.505 185.405,10.735 185.405,14.406C185.405,16.168 185.552,17.636 186.139,19.104C186.726,20.572 187.46,21.747 188.194,22.775C188.929,23.802 189.956,24.683 191.278,25.711C192.599,26.592 193.627,27.326 194.654,27.913C195.389,28.5 196.71,28.941 198.031,29.528Z" style="fill:white;fill-rule:nonzero;"/>
            <path d="M209.629,69.756L214.181,69.756L208.308,90.458L203.757,90.458L199.499,77.097L195.241,90.458L190.69,90.458L184.523,69.756L189.956,69.756L193.479,82.823L197.297,69.756L201.995,69.756L205.959,82.823L209.629,69.756Z" style="fill:white;fill-rule:nonzero;"/>
            <rect x="217.559" y="69.756" width="4.698" height="20.702" style="fill:white;fill-rule:nonzero;"/>
            <path d="M246.188,69.756L246.188,90.458L242.37,90.458L232.533,77.978L232.533,90.458L228.129,90.458L228.129,69.756L231.946,69.756L241.783,82.236L241.783,69.756L246.188,69.756Z" style="fill:white;fill-rule:nonzero;"/>
            <path d="M269.973,69.756L269.973,90.458L266.156,90.458L256.319,77.978L256.319,90.458L251.914,90.458L251.914,69.756L255.731,69.756L265.568,82.236L265.568,69.756L269.973,69.756Z" style="fill:white;fill-rule:nonzero;"/>
            <rect x="275.992" y="69.756" width="4.698" height="20.702" style="fill:white;fill-rule:nonzero;"/>
            <path d="M304.768,69.756L304.768,90.458L300.95,90.458L291.114,77.978L291.114,90.458L286.709,90.458L286.709,69.756L290.526,69.756L300.363,82.236L300.363,69.756L304.768,69.756Z" style="fill:white;fill-rule:nonzero;"/>
            <path d="M323.267,83.117L318.863,83.117L318.863,78.712L327.672,78.712L327.672,87.962C326.791,88.843 325.617,89.577 324.148,90.164C322.68,90.752 321.359,90.898 319.891,90.898C316.367,90.898 313.724,89.871 311.669,87.962C309.76,86.053 308.732,83.411 308.732,80.181C308.732,77.097 309.76,74.602 311.669,72.546C313.577,70.491 316.22,69.463 319.303,69.463C322.093,69.463 324.295,70.197 326.057,71.665L324.002,75.482C323.561,75.042 322.974,74.748 322.24,74.455C321.506,74.161 320.625,74.014 319.891,74.014C317.982,74.014 316.661,74.602 315.486,75.629C314.312,76.657 313.871,78.272 313.871,80.327C313.871,82.236 314.458,83.704 315.486,84.879C316.661,86.053 318.129,86.641 319.891,86.641C320.478,86.641 321.065,86.494 321.799,86.347C322.387,86.2 322.974,85.907 323.121,85.613L323.121,83.117L323.267,83.117Z" style="fill:white;fill-rule:nonzero;"/>
            <path d="M352.778,84.879L354.54,88.402C353.953,89.136 352.925,89.724 351.751,90.164C350.576,90.605 349.255,90.751 347.786,90.751C344.556,90.751 341.914,89.724 340.005,87.815C337.95,85.76 336.922,83.264 336.922,80.034C336.922,76.951 337.803,74.308 339.711,72.399C341.62,70.344 344.263,69.316 347.64,69.316C348.961,69.316 350.136,69.463 351.31,69.903C352.485,70.344 353.366,70.784 353.953,71.518L351.897,75.042C350.576,74.161 349.108,73.72 347.64,73.72C346.025,73.72 344.556,74.308 343.529,75.335C342.501,76.363 341.914,77.978 341.914,79.887C341.914,81.649 342.501,83.264 343.676,84.438C344.85,85.613 346.318,86.2 348.227,86.2C349.989,86.347 351.457,85.906 352.778,84.879Z" style="fill:white;fill-rule:nonzero;"/>
            <path d="M355.861,80.181C355.861,77.097 356.889,74.602 358.945,72.546C361,70.491 363.643,69.463 366.873,69.463C370.103,69.463 372.746,70.491 374.801,72.399C376.856,74.308 377.884,76.951 377.884,80.181C377.884,83.264 376.856,85.907 374.801,87.815C372.746,89.871 370.103,90.898 366.873,90.898C363.643,90.898 361,89.871 358.945,87.962C356.889,85.907 355.861,83.411 355.861,80.181ZM360.853,80.181C360.853,81.942 361.44,83.411 362.615,84.585C363.79,85.76 365.111,86.347 366.873,86.347C368.781,86.347 370.25,85.76 371.277,84.585C372.305,83.411 372.892,81.943 372.892,80.034C372.892,78.125 372.305,76.657 371.131,75.482C369.956,74.308 368.488,73.721 366.873,73.721C365.111,73.721 363.643,74.308 362.615,75.482C361.44,76.804 360.853,78.272 360.853,80.181Z" style="fill:white;fill-rule:nonzero;"/>
            <path d="M386.839,90.458L382.141,90.458L382.141,69.756L386.839,69.756L393.299,78.565L399.318,69.756L403.723,69.756L403.723,90.458L399.025,90.458L399.025,77.244L393.299,85.319L392.565,85.319L386.839,77.391L386.839,90.458Z" style="fill:white;fill-rule:nonzero;"/>
            <path d="M409.449,90.458L409.449,69.903C411.798,69.756 413.854,69.756 415.762,69.756C418.112,69.756 419.727,70.197 420.901,71.078C422.076,71.959 422.663,73.28 422.663,74.895C422.663,76.95 421.929,78.419 420.314,79.446C421.195,79.74 421.929,80.327 422.516,81.208C423.103,82.089 423.397,82.97 423.397,84.291C423.397,86.347 422.663,87.962 421.195,88.99C419.727,90.017 417.818,90.605 415.469,90.605C412.679,90.605 410.624,90.605 409.449,90.458ZM415.616,74.014C415.322,74.014 414.735,74.014 414.147,74.161L414.147,77.978L415.762,77.978C417.231,77.978 417.965,77.244 417.965,75.923C417.965,75.335 417.818,74.895 417.377,74.601C416.937,74.308 416.35,74.014 415.616,74.014ZM416.056,82.089L414.147,82.089L414.147,86.053C414.588,86.2 415.175,86.2 415.762,86.2C417.671,86.2 418.552,85.466 418.552,83.998C418.552,82.676 417.671,82.089 416.056,82.089Z" style="fill:white;fill-rule:nonzero;"/>
            <rect x="428.389" y="69.756" width="4.698" height="20.702" style="fill:white;fill-rule:nonzero;"/>
            <path d="M457.166,69.756L457.166,90.458L453.349,90.458L443.512,77.978L443.512,90.458L439.107,90.458L439.107,69.756L442.925,69.756L452.762,82.236L452.762,69.756L457.166,69.756Z" style="fill:white;fill-rule:nonzero;"/>
            <path d="M464.948,90.458L460.25,90.458L468.912,69.756L473.17,69.756L481.832,90.458L476.694,90.458L474.932,86.053L466.71,86.053L464.948,90.458ZM473.023,81.649L470.674,75.776L468.325,81.649L473.023,81.649Z" style="fill:white;fill-rule:nonzero;"/>
            <path d="M486.969,74.161L480.656,74.161L480.656,69.756L497.834,69.756L497.834,74.161L491.668,74.161L491.668,90.458L486.969,90.458L486.969,74.161Z" style="fill:white;fill-rule:nonzero;"/>
            <rect x="501.506" y="69.756" width="4.698" height="20.702" style="fill:white;fill-rule:nonzero;"/>
            <path d="M510.607,80.181C510.607,77.097 511.635,74.602 513.691,72.546C515.746,70.491 518.389,69.463 521.619,69.463C524.849,69.463 527.492,70.491 529.547,72.399C531.603,74.308 532.63,76.951 532.63,80.181C532.63,83.264 531.603,85.907 529.547,87.815C527.492,89.871 524.849,90.898 521.619,90.898C518.389,90.898 515.746,89.871 513.691,87.962C511.635,85.907 510.607,83.411 510.607,80.181ZM515.599,80.181C515.599,81.942 516.187,83.411 517.361,84.585C518.536,85.76 519.857,86.347 521.619,86.347C523.527,86.347 524.996,85.76 526.023,84.585C527.051,83.411 527.638,81.943 527.638,80.034C527.638,78.125 527.051,76.657 525.877,75.482C524.702,74.308 523.234,73.721 521.619,73.721C519.857,73.721 518.389,74.308 517.361,75.482C516.187,76.804 515.599,78.272 515.599,80.181Z" style="fill:white;fill-rule:nonzero;"/>
            <path d="M554.947,69.756L554.947,90.458L551.13,90.458L541.293,77.978L541.293,90.458L536.889,90.458L536.889,69.756L540.706,69.756L550.543,82.236L550.543,69.756L554.947,69.756Z" style="fill:white;fill-rule:nonzero;"/>
            <path d="M65.748,56.983C62.812,54.047 61.197,50.23 61.05,46.119L45.634,61.535L29.63,45.531L45.634,29.528L50.332,34.226C51.507,35.401 53.121,35.988 54.736,35.988C56.351,35.988 57.966,35.401 59.141,34.226L65.895,27.473C68.391,24.977 68.391,21.013 65.895,18.664L50.038,2.66C48.864,1.486 47.249,0.898 45.634,0.898C44.019,0.898 42.404,1.486 41.229,2.66L2.763,41.127C0.267,43.623 0.267,47.587 2.763,49.936L41.082,88.256C42.257,89.43 43.872,90.018 45.487,90.018C47.102,90.018 48.717,89.43 49.891,88.256L76.466,61.681C72.502,61.535 68.684,59.92 65.748,56.983Z" style="fill:white;fill-rule:nonzero;"/>
            <path d="M151.636,49.936L113.316,88.256C112.142,89.43 110.527,90.018 108.912,90.018C107.297,90.018 105.682,89.43 104.507,88.256L88.504,72.399C86.008,69.903 86.008,65.939 88.504,63.59L95.258,56.836C96.432,55.662 98.047,55.075 99.662,55.075C101.277,55.075 102.892,55.662 104.067,56.836L108.471,61.388L108.765,61.681L124.768,45.678L108.765,29.528L84.98,53.313C84.834,53.46 84.834,53.46 84.687,53.606C82.631,55.515 79.988,56.543 77.199,56.543C74.263,56.543 71.473,55.368 69.418,53.313C67.362,51.257 66.188,48.468 66.188,45.531C66.188,42.742 67.215,40.099 69.124,38.044C69.271,37.897 69.271,37.897 69.418,37.75L69.564,37.603L69.711,37.456L104.36,2.66C105.535,1.486 107.15,0.898 108.765,0.898C110.38,0.898 111.995,1.486 113.17,2.66L151.489,40.98C154.132,43.476 154.132,47.44 151.636,49.936Z" style="fill:white;fill-rule:nonzero;"/>
        </g>
        <g id="Group--10-.svg1" serif:id="Group (10).svg">
        </g>
    </g>
</svg>
